<?xml version="1.0" encoding="UTF-8" standalone="no"?>
<!-- Uploaded to: SVG Repo, www.svgrepo.com, Generator: SVG Repo Mixer Tools -->

<svg
   width="600.2793"
   height="450.80569"
   viewBox="0 0 18.008379 13.524171"
   fill="none"
   version="1.1"
   id="svg1"
   xmlns="http://www.w3.org/2000/svg"
   xmlns:svg="http://www.w3.org/2000/svg">
  <defs
     id="defs1" />
  <path
     fill-rule="evenodd"
     clip-rule="evenodd"
     d="m 0.7580805,0.01436851 c -0.3535507,0.0013907 -0.7489827,0.3964481 -0.75,0.75 -0.010774,3.74432419 -0.010774,8.26961999 0,12.00000049 0.00102,0.353552 0.3964478,0.749096 0.75,0.75 5.1092266,0.01307 11.3838015,0.01307 16.4999995,0 0.353552,-9.03e-4 0.749645,-0.396447 0.75,-0.75 0.0038,-3.7791865 -0.03058,-7.8985175 0,-12.00000049 0.0026,-0.3535437 -0.396448,-0.7487751 -0.75,-0.75 -5.268187,-0.018252 -11.4047175,-0.0200431 -16.4999995,0 z m 0.75,2.44549999 V 12.014369 H 16.50808 V 2.4596185 l -7.1598295,6.50901 c 0,0 -0.21047,0.189197 -0.34027,0.18934 -0.130754,1.44e-4 -0.34319,-0.189974 -0.34319,-0.189974 z M 15.31798,1.5143685 H 2.6979405 l 6.102506,5.547733 c 0,0 0.127021,0.12365 0.207534,0.123574 0.08127,-7.7e-5 0.209238,-0.125125 0.209238,-0.125125 z"
     fill="#080341"
     id="path1"
     style="fill:#aa0000" />
</svg>
